<svg width="32" height="32" viewBox="0 0 32 32" fill="none" xmlns="http://www.w3.org/2000/svg">
  <rect width="32" height="32" rx="4" fill="black" />
  <g transform="translate(6.4 25.1) scale(1.18)">
    <path
      fill="white"
      d="M0.99-8.33C0.90-7.88 0.94-7.42 1.09-7.00L1.65-7.00C1.64-7.02 1.64-7.05 1.64-7.08C1.65-7.32 1.72-7.56 1.88-7.74C1.97-7.84 2.08-7.91 2.19-7.97C2.31-8.02 2.44-8.05 2.57-8.06C2.83-8.09 3.35-8.08 3.35-8.08C3.48-8.08 3.62-8.08 3.76-8.08L3.76-3.59C2.34-2.86 1.13-1.72 0.36-0.32L0.91-0.32C1.68-1.15 2.68-1.76 3.76-2.07L3.76 1.99L3.76 2.68L7.13 2.68L8.63 2.68L8.63 1.99L8.63 1.99L8.63-1.41C8.96-1.20 9.28-0.97 9.56-0.71L15.86-4.10L15.86-15.34C15.46-15.89 15.01-16.41 14.53-16.90C14.02-17.40 13.47-17.86 12.89-18.26L8.63-15.16L8.63-17.69L7.94-17.69L7.94-14.66L7.13-14.07L7.13-14.50C7.13-14.87 7.12-15.25 7.05-15.61C6.98-15.98 6.84-16.33 6.62-16.64C6.40-16.94 6.12-17.20 5.79-17.38C5.46-17.56 5.10-17.67 4.73-17.71C4.13-17.78 3.52-17.67 2.97-17.42C2.42-17.17 1.95-16.76 1.62-16.26C1.32-15.80 1.15-15.27 1.13-14.72L1.71-14.72C1.74-14.92 1.81-15.11 1.92-15.29C2.08-15.55 2.32-15.76 2.61-15.84C2.75-15.88 2.91-15.88 3.06-15.85C3.20-15.81 3.34-15.73 3.44-15.62C3.59-15.48 3.68-15.28 3.72-15.07C3.76-14.87 3.76-14.66 3.76-14.45L3.76-10.48C3.34-10.50 2.91-10.42 2.52-10.25C2.13-10.08 1.78-9.81 1.52-9.48C1.25-9.15 1.06-8.75 0.99-8.33ZM8.63-9.91C8.63-11.41 8.63-12.91 8.63-14.41L10.55-15.77C10.92-15.49 11.29-15.20 11.64-14.89C12.05-14.53 12.44-14.14 12.80-13.73L12.80-12.01ZM8.63-9.14L12.80-11.24L12.80-9.49L8.63-7.39ZM8.63-6.62L12.80-8.72L12.80-3.25L12.27-2.94C11.20-3.72 9.94-4.23 8.63-4.42ZM7.94-13.93C7.94-10.78 7.94-7.64 7.94-4.49C7.67-4.51 7.40-4.51 7.13-4.50L7.13-13.35ZM7.94-1.77C7.94-0.51 7.94 0.74 7.94 1.99L7.13 1.99L7.13-2.06C7.40-1.98 7.68-1.88 7.94-1.77Z"
    />
  </g>
</svg>
